<?xml version="1.0" encoding="utf-8"?>
<!-- Generator: Adobe Illustrator 22.0.1, SVG Export Plug-In . SVG Version: 6.00 Build 0)  -->
<svg version="1.1" id="Layer_1" xmlns="http://www.w3.org/2000/svg" xmlns:xlink="http://www.w3.org/1999/xlink" x="0px" y="0px"
	 viewBox="0 0 233.4 63.1" style="enable-background:new 0 0 233.4 63.1;" xml:space="preserve">
<style type="text/css">
	.st0{fill:#FFFFFF;}
</style>
<g>
	<path class="st0" d="M43.9,59.8c0-0.1-0.4-5.5-2.9-11.8c-2.5-6.3-6.1-9.9-6.2-10c-0.6-0.6-1.4-0.9-2.1-0.9v0h0h0v0
		c-0.8,0-1.5,0.3-2.1,0.9c-0.1,0.1-3.6,3.7-6.2,10c-2.5,6.3-2.9,11.7-2.9,11.8l0,0.7v0v0v0l0,0c0,3.4,5.6,3.6,5.7-0.5l0-0.2l0.1-0.8
		c0,0,0.1-1,0.3-2.6c0.3-1.6,0.8-3.8,1.6-5.9c0.9-2.1,1.9-3.8,2.7-4.9c0.3-0.4,1.3-0.4,1.5,0c0.8,1.1,1.8,2.8,2.7,4.9
		c0.9,2.1,1.4,4.3,1.6,5.9c0.3,1.6,0.3,2.6,0.3,2.6l0.1,0.8l0,0.2c0.1,4.1,5.6,4,5.7,0.5l0,0v0v0v0L43.9,59.8L43.9,59.8z"/>
	<path class="st0" d="M62.9,29.3c-0.1,0-5.3-1.3-12-0.9c-6.7,0.5-11.2,2.8-11.3,2.8c-0.7,0.4-1.3,1-1.5,1.8v0c0,0,0,0,0,0
		c0,0,0,0,0,0l0,0c-0.2,0.7-0.2,1.6,0.2,2.3c0.1,0.1,2.4,4.7,7.5,9c5.1,4.4,10.1,6.4,10.2,6.4l0.6,0.2l0,0h0l0,0l0,0
		c3.2,1,5.1-4.2,1.2-5.6l-0.2-0.1l-0.7-0.3c0,0-0.9-0.4-2.4-1.2c-1.4-0.8-3.3-1.9-5.1-3.4c-1.7-1.5-3-3-3.8-4.1
		c-0.3-0.4,0-1.3,0.5-1.5c1.3-0.4,3.2-0.9,5.5-1.1c2.3-0.2,4.5,0,6.1,0.3c1.6,0.2,2.6,0.5,2.6,0.5l0.8,0.2l0.2,0
		c3.9,1.2,5.5-4.2,2.3-5.3l0,0l0,0h0l0,0L62.9,29.3L62.9,29.3z"/>
	<path class="st0" d="M40.1,1.6c-0.1,0.1-2.9,4.7-4.5,11.3c-1.6,6.6-0.9,11.6-0.8,11.8c0.1,0.8,0.6,1.5,1.2,2c0,0,0,0,0,0
		c0,0,0,0,0,0l0,0c0.6,0.4,1.4,0.7,2.2,0.5c0.1,0,5.1-0.8,10.8-4.4c5.7-3.6,9.1-7.8,9.2-7.9l0.4-0.6l0,0h0l0,0l0,0
		c2-2.8-2.4-6.2-4.9-2.9l-0.1,0.1L53,12.2c0,0-0.6,0.8-1.8,1.9c-1.2,1.1-2.8,2.6-4.8,3.8c-1.9,1.2-3.7,2-5.1,2.4
		c-0.5,0.2-1.3-0.4-1.2-0.9c0-1.4,0.1-3.4,0.7-5.6c0.5-2.2,1.4-4.3,2.1-5.8c0.7-1.5,1.3-2.4,1.3-2.4L44.6,5l0.1-0.2
		C47,1.5,42.5-1.7,40.5,1v0l0,0v0l0,0L40.1,1.6L40.1,1.6z"/>
	<path class="st0" d="M7,15c0.1,0.1,3.5,4.3,9.2,7.9c5.7,3.6,10.7,4.4,10.8,4.4c0.8,0.1,1.6-0.1,2.2-0.5l0,0c0,0,0,0,0,0
		c0,0,0,0,0,0v0c0.6-0.5,1.1-1.2,1.2-2c0-0.1,0.8-5.2-0.8-11.8C28,6.4,25.1,1.8,25.1,1.7l-0.4-0.6l0,0c0,0,0,0,0,0l0,0l0,0
		c-2-2.8-6.6,0.4-4.3,3.8l0.1,0.2l0.4,0.7c0,0,0.5,0.9,1.3,2.4c0.7,1.5,1.6,3.5,2.1,5.8c0.5,2.2,0.7,4.2,0.7,5.6
		c0,0.5-0.8,1.1-1.3,0.9c-1.3-0.4-3.1-1.2-5.1-2.4c-1.9-1.2-3.6-2.7-4.8-3.8c-1.2-1.1-1.8-1.9-1.8-1.9l-0.5-0.6l-0.1-0.1
		C9,8.2,4.6,11.6,6.5,14.4l0,0l0,0h0l0,0L7,15L7,15z"/>
	<path class="st0" d="M9.3,50.9c0.1,0,5.1-2.1,10.2-6.4c5.1-4.4,7.5-8.9,7.5-9c0.4-0.7,0.4-1.6,0.2-2.3h0c0,0,0,0,0,0c0,0,0,0,0,0h0
		c-0.2-0.7-0.8-1.4-1.5-1.8c-0.1-0.1-4.6-2.4-11.3-2.8c-6.7-0.5-11.9,0.9-12,0.9l-0.7,0.2l0,0h0l0,0l0,0c-3.2,1.1-1.6,6.5,2.3,5.3
		l0.2,0l0.8-0.2c0,0,1-0.3,2.6-0.5c1.6-0.2,3.8-0.4,6.1-0.3c2.3,0.2,4.2,0.6,5.5,1.1c0.5,0.2,0.8,1.1,0.5,1.5
		c-0.8,1.1-2.1,2.6-3.8,4.1c-1.7,1.5-3.6,2.6-5.1,3.4c-1.4,0.8-2.4,1.2-2.4,1.1l-0.7,0.3l-0.2,0.1c-3.8,1.4-2,6.6,1.2,5.6l0,0l0,0
		l0,0L9.3,50.9L9.3,50.9z"/>
	<path class="st0" d="M118.9,38.8c0.1,14-6.6,19.3-17.7,19.3c-11,0-17.7-5.3-17.6-19.3V1.6h-5.7v38.5c0,12.4,6.7,22.9,23.3,22.9
		c16.8,0,23.4-10.5,23.4-22.9V1.6h-5.7V38.8L118.9,38.8z"/>
	<path class="st0" d="M160,58.1c-15.9,0-22.7-13.3-22.7-26.4c0-13.1,6.7-26.4,22.7-26.4c8.7,0,16.4,5.3,18.4,14.5h5.7
		C182.6,7.2,171.3,0.3,160,0.3c-19,0-28.4,14.9-28.4,31.3S141,63,160,63c13.2,0,22.3-8.3,24.6-21.5h-5.8
		C177,50.9,170.2,58.1,160,58.1"/>
	<path class="st0" d="M223,30.2V30c5.5-1.5,8.3-6.5,8.3-12c0-10.5-10.4-16.3-19.8-16.3c-11.4,0-19,7.3-20.2,18.2h11.3
		c0.6-4.9,3.7-8.3,9-8.3c4.4,0,8.3,2.9,8.3,7.8c0,6.7-7.4,7.7-12.5,7.3V35c5.8,0,13.6-0.2,13.6,8.8c0,5.6-4.2,9.3-9.6,9.3
		c-6.9,0-10.1-5.2-10.4-11.6h-11.4c-0.2,13.5,8.7,21.5,21.9,21.5c11.5,0,21.9-7,21.9-19.4C233.4,37,229.5,31.6,223,30.2"/>
	<path class="st0" d="M201,41.4h-11.4v0L201,41.4C201,41.5,201,41.5,201,41.4"/>
</g>
</svg>
